<?xml version="1.0" encoding="UTF-8" standalone="no"?>
<!-- Uploaded to: SVG Repo, www.svgrepo.com, Generator: SVG Repo Mixer Tools -->

<svg
   width="512"
   height="512"
   viewBox="0 -0.5 30.72 30.72"
   version="1.1"
   id="svg11"
   sodipodi:docname="github.svg"
   inkscape:version="1.2.2 (732a01da63, 2022-12-09)"
   xmlns:inkscape="http://www.inkscape.org/namespaces/inkscape"
   xmlns:sodipodi="http://sodipodi.sourceforge.net/DTD/sodipodi-0.dtd"
   xmlns="http://www.w3.org/2000/svg"
   xmlns:svg="http://www.w3.org/2000/svg"
   xmlns:rdf="http://www.w3.org/1999/02/22-rdf-syntax-ns#"
   xmlns:cc="http://creativecommons.org/ns#"
   xmlns:dc="http://purl.org/dc/elements/1.1/">
  <sodipodi:namedview
     id="namedview13"
     pagecolor="#ffffff"
     bordercolor="#000000"
     borderopacity="0.25"
     inkscape:showpageshadow="2"
     inkscape:pageopacity="0.0"
     inkscape:pagecheckerboard="0"
     inkscape:deskcolor="#d1d1d1"
     showgrid="false"
     inkscape:zoom="0.25"
     inkscape:cx="936"
     inkscape:cy="-484"
     inkscape:window-width="1920"
     inkscape:window-height="1009"
     inkscape:window-x="-8"
     inkscape:window-y="-8"
     inkscape:window-maximized="1"
     inkscape:current-layer="svg11" />
  <title
     id="title2">Github-color</title>
  <desc
     id="desc4">Created with Sketch.</desc>
  <defs
     id="defs6" />
  <metadata
     id="metadata791">
    <rdf:RDF>
      <cc:Work
         rdf:about="">
        <dc:title>Github-color</dc:title>
      </cc:Work>
    </rdf:RDF>
  </metadata>
  <path
     style="opacity:0.997279;fill:#ffffff;fill-opacity:1;stroke:none;stroke-width:0.3;paint-order:stroke fill markers"
     id="path2085"
     sodipodi:type="arc"
     sodipodi:cx="15.442221"
     sodipodi:cy="15.894953"
     sodipodi:rx="13.457358"
     sodipodi:ry="14.251304"
     sodipodi:start="0"
     sodipodi:end="6.2823401"
     sodipodi:open="true"
     sodipodi:arc-type="arc"
     d="M 28.899579,15.894953 A 13.457358,14.251304 0 0 1 15.445064,30.146256 13.457358,14.251304 0 0 1 1.9848635,15.900975 13.457358,14.251304 0 0 1 15.43369,1.643652 13.457358,14.251304 0 0 1 28.899574,15.882907" />
  <rect
     style="opacity:0.997279;fill:#ffffff;fill-opacity:1;stroke:none;stroke-width:0.257121;paint-order:stroke fill markers"
     id="rect2156"
     width="9.2210531"
     height="1.3880157"
     x="10.749474"
     y="28.831984"
     rx="31.146666"
     ry="0" />
  <path
     d="M 15.35904,-0.49999931 C 6.8774397,-0.49999931 -4.7999998e-7,6.5506263 -4.7999998e-7,15.249974 -4.7999998e-7,22.207093 4.4006397,28.110013 10.50528,30.192816 c 0.768,0.144698 1.04832,-0.341554 1.04832,-0.758901 0,-0.374039 -0.01344,-1.364256 -0.02112,-2.678314 -4.2729603,0.95183 -5.1744003,-2.111353 -5.1744003,-2.111353 -0.69792,-1.819003 -1.70496,-2.303287 -1.70496,-2.303287 -1.3948801,-0.977426 0.1056,-0.957739 0.1056,-0.957739 1.5408,0.111233 2.352,1.623134 2.352,1.623134 1.3708801,2.406644 3.5952003,1.711718 4.4707203,1.308149 0.1392,-1.01778 0.53664,-1.711718 0.97536,-2.105444 C 9.1459198,21.8114 5.5603197,20.460923 5.5603197,14.42611 c 0,-1.719595 0.59808,-3.125192 1.58112,-4.226641 -0.1584,-0.3986405 -0.68544,-1.9991329 0.14976,-4.1675728 0,0 1.2902401,-0.4232562 4.2240003,1.6142707 1.22592,-0.3494302 2.5392,-0.5236518 3.84576,-0.530541 1.30464,0.00686 2.61888,0.1811108 3.84576,0.530541 2.93184,-2.0375269 4.2192,-1.6142707 4.2192,-1.6142707 0.83808,2.1684399 0.31104,3.7689323 0.15264,4.1675728 0.98496,1.101449 1.5792,2.507046 1.5792,4.226641 0,6.049578 -3.59136,7.381355 -7.0128,7.77114 0.55104,0.486252 1.04256,1.446938 1.04256,2.916518 0,2.105444 -0.0192,3.803384 -0.0192,4.320147 0,0.421282 0.27648,0.911468 1.056,0.756934 C 26.3232,28.104105 30.72,22.205126 30.72,15.249974 30.72,6.5506263 23.84256,-0.49999931 15.35904,-0.49999931"
     id="Github"
     style="display:inline;fill:#3e75c3;fill-opacity:1;stroke:none;stroke-width:0.646773" />
</svg>
