<?xml version="1.0" encoding="UTF-8" standalone="no"?>
<!-- Uploaded to: SVG Repo, www.svgrepo.com, Generator: SVG Repo Mixer Tools -->

<svg
   width="512"
   height="512"
   viewBox="0 0 30.72 30.72"
   fill="none"
   version="1.1"
   id="svg3505"
   sodipodi:docname="instagram.svg"
   inkscape:version="1.2.2 (732a01da63, 2022-12-09)"
   xmlns:inkscape="http://www.inkscape.org/namespaces/inkscape"
   xmlns:sodipodi="http://sodipodi.sourceforge.net/DTD/sodipodi-0.dtd"
   xmlns="http://www.w3.org/2000/svg"
   xmlns:svg="http://www.w3.org/2000/svg">
  <defs
     id="defs3509" />
  <sodipodi:namedview
     id="namedview3507"
     pagecolor="#ffffff"
     bordercolor="#000000"
     borderopacity="0.25"
     inkscape:showpageshadow="2"
     inkscape:pageopacity="0.0"
     inkscape:pagecheckerboard="0"
     inkscape:deskcolor="#d1d1d1"
     showgrid="false"
     inkscape:zoom="0.53437501"
     inkscape:cx="-153.45029"
     inkscape:cy="516.49122"
     inkscape:window-width="1920"
     inkscape:window-height="1009"
     inkscape:window-x="-8"
     inkscape:window-y="-8"
     inkscape:window-maximized="1"
     inkscape:current-layer="svg3505" />
  <circle
     cx="15.36"
     cy="15.36"
     fill="#c13584"
     id="circle3497"
     style="stroke-width:0.768006"
     r="15.36" />
  <path
     d="m 15.36,7.8046078 c 2.460749,0 2.752282,0.00937 3.724032,0.053683 0.89856,0.041011 1.386547,0.1911552 1.711334,0.3173376 0.430157,0.1671936 0.737127,0.3668736 1.05961,0.6893568 0.32256,0.32256 0.52224,0.6295296 0.689434,1.0596864 0.126182,0.3247874 0.276326,0.8127744 0.317337,1.7112584 0.04431,0.971827 0.05368,1.263283 0.05368,3.724032 0,2.460825 -0.0094,2.752281 -0.05368,3.724108 -0.04101,0.89856 -0.191155,1.386471 -0.317337,1.711258 -0.167194,0.430157 -0.366874,0.737203 -0.689357,1.059686 -0.32256,0.322484 -0.62953,0.522164 -1.059687,0.689357 -0.324787,0.126259 -0.812774,0.276327 -1.711334,0.317338 -0.971597,0.04431 -1.263053,0.05376 -3.724032,0.05376 -2.460979,0 -2.752358,-0.0094 -3.724032,-0.05376 C 10.737408,22.820698 10.249421,22.67063 9.9246338,22.544371 9.494477,22.377178 9.1875074,22.177498 8.8650242,21.855014 8.542541,21.532531 8.3427842,21.225485 8.1755906,20.795328 8.0494082,20.470541 7.8992642,19.98263 7.858253,19.08407 7.813939,18.112243 7.80457,17.820787 7.80457,15.359962 c 0,-2.460749 0.00937,-2.752205 0.053683,-3.724032 C 7.8992642,10.737446 8.0494082,10.249459 8.1755906,9.9246718 8.3427842,9.494515 8.5424642,9.1875454 8.8650242,8.8650622 9.1875074,8.5425022 9.494477,8.3428222 9.9246338,8.1756286 10.249421,8.0494462 10.737408,7.8993022 11.635968,7.858291 12.607718,7.8139774 12.899251,7.8046078 15.36,7.8046078 Z m 0,-1.6605696 c -2.502912,0 -2.816794,0.010598 -3.799757,0.05545 -0.980889,0.044774 -1.6508924,0.2005244 -2.2371068,0.42839 C 8.7171074,6.863347 8.2031618,7.1784574 7.690829,7.690867 7.1784194,8.2031998 6.863309,8.7171454 6.6278402,9.3231742 6.3999746,9.9093886 6.2442242,10.579315 6.1994498,11.560282 c -0.044851,0.982963 -0.05545,1.296844 -0.05545,3.79968 0,2.502988 0.010598,2.816793 0.05545,3.799756 0.044774,0.980967 0.2005248,1.650893 0.4283904,2.237108 0.2354688,0.606028 0.5505792,1.119974 1.0629888,1.632384 0.5123328,0.512332 1.0262784,0.827443 1.6323072,1.062912 0.5862144,0.227865 1.2562178,0.383616 2.2371068,0.42839 0.982963,0.04485 1.296845,0.05545 3.799757,0.05545 2.502912,0 2.816794,-0.0106 3.799757,-0.05545 0.980889,-0.04477 1.650893,-0.200525 2.237107,-0.42839 0.606029,-0.235469 1.119974,-0.55058 1.632307,-1.062912 0.512333,-0.51241 0.82752,-1.026356 1.062989,-1.632384 0.227866,-0.586215 0.383616,-1.256141 0.42839,-2.237108 0.04485,-0.982963 0.05545,-1.296768 0.05545,-3.799756 0,-2.502836 -0.0106,-2.816717 -0.05545,-3.79968 C 24.47578,10.579315 24.320026,9.9093886 24.09216,9.3231742 23.856691,8.7171454 23.541504,8.2031998 23.029171,7.690867 22.516838,7.1784574 22.002893,6.863347 21.396864,6.6278782 20.81065,6.4000126 20.140646,6.2442622 19.159757,6.1994878 18.176794,6.1546366 17.862912,6.1440382 15.36,6.1440382 Z"
     fill="#ffffff"
     id="path3499"
     style="stroke-width:0.768006" />
  <path
     d="m 15.359962,10.627507 c -2.613735,0 -4.732493,2.118759 -4.732493,4.732493 0,2.613734 2.118758,4.732493 4.732493,4.732493 2.613734,0 4.732569,-2.118759 4.732569,-4.732493 0,-2.613734 -2.118835,-4.732493 -4.732569,-4.732493 z m 0,7.804493 c -1.696589,0 -3.072,-1.375411 -3.072,-3.072 0,-1.696589 1.375411,-3.072 3.072,-3.072 1.696665,0 3.072,1.375411 3.072,3.072 0,1.696589 -1.375335,3.072 -3.072,3.072 z"
     fill="#ffffff"
     id="path3501"
     style="stroke-width:0.768006" />
  <path
     d="m 16.46592,15.360038 c 0,0.610714 -0.49513,1.10592 -1.10592,1.10592 -0.61079,0 -1.10592,-0.495206 -1.10592,-1.10592 0,-0.61079 0.49513,-1.105996 1.10592,-1.105996 0.61079,0 1.10592,0.495206 1.10592,1.105996 z"
     fill="#ffffff"
     id="path3503"
     style="stroke-width:0.768006" />
</svg>
