<?xml version="1.0" encoding="UTF-8" standalone="no"?>
<!-- Uploaded to: SVG Repo, www.svgrepo.com, Generator: SVG Repo Mixer Tools -->

<svg
   aria-label="WhatsApp"
   role="img"
   viewBox="0 0 512 512"
   version="1.1"
   id="svg8"
   sodipodi:docname="whatsapp.svg"
   inkscape:version="1.2.2 (732a01da63, 2022-12-09)"
   xmlns:inkscape="http://www.inkscape.org/namespaces/inkscape"
   xmlns:sodipodi="http://sodipodi.sourceforge.net/DTD/sodipodi-0.dtd"
   xmlns="http://www.w3.org/2000/svg"
   xmlns:svg="http://www.w3.org/2000/svg">
  <defs
     id="defs12" />
  <sodipodi:namedview
     id="namedview10"
     pagecolor="#ffffff"
     bordercolor="#000000"
     borderopacity="0.25"
     inkscape:showpageshadow="2"
     inkscape:pageopacity="0.0"
     inkscape:pagecheckerboard="0"
     inkscape:deskcolor="#d1d1d1"
     showgrid="false"
     inkscape:zoom="0.29520327"
     inkscape:cx="-213.41227"
     inkscape:cy="-362.46211"
     inkscape:window-width="1920"
     inkscape:window-height="1009"
     inkscape:window-x="-8"
     inkscape:window-y="-8"
     inkscape:window-maximized="1"
     inkscape:current-layer="svg8" />
  <rect
     width="512"
     height="512"
     rx="256"
     fill="#25d366"
     id="rect2"
     x="0"
     y="0" />
  <path
     fill="#25d366"
     stroke="#ffffff"
     stroke-width="26"
     d="m 125.47121,391.72436 14,-65 a 138,138 0 1 1 50,47 z"
     id="path4" />
  <path
     fill="#ffffff"
     d="m 299.78281,274.81289 c -3,-2 -6,-3 -9,1 l -12,16 c -3,2 -5,3 -9,1 -15,-8 -36,-17 -54,-47 -1,-4 1,-6 3,-8 l 9,-14 c 2,-2 1,-4 0,-6 l -12,-29 c -3,-8 -6,-7 -9,-7 h -8 c -2,0 -6,1 -10,5 -22,22 -13,53 3,73 3,4 23,40 66,59 32,14 39,12 48,10 11,-1 22,-10 27,-19 1,-3 6,-16 2,-18"
     id="path6" />
</svg>
